<?xml version="1.0" encoding="utf-8"?>
<!-- Generator: Adobe Illustrator 23.0.3, SVG Export Plug-In . SVG Version: 6.00 Build 0)  -->
<svg version="1.1" id="Capa_1" xmlns="http://www.w3.org/2000/svg" xmlns:xlink="http://www.w3.org/1999/xlink" x="0px" y="0px"
	 viewBox="0 0 60 60" style="enable-background:new 0 0 60 60;" xml:space="preserve">
<style type="text/css">
	.st0{fill:#FCFAFA;}
</style>
<g>
	<path class="st0" d="M9,26h8V16H9V26z M11,18h4v6h-4V18z"/>
	<path class="st0" d="M9,38h8V28H9V38z M11,30h4v6h-4V30z"/>
	<path class="st0" d="M9,50h8V40H9V50z M11,42h4v6h-4V42z"/>
	<path class="st0" d="M36,25c-0.6,0-1,0.4-1,1v9c0,0.6,0.4,1,1,1s1-0.4,1-1v-9C37,25.4,36.6,25,36,25z"/>
	<path class="st0" d="M36,38c-0.6,0-1,0.4-1,1v9c0,0.6,0.4,1,1,1s1-0.4,1-1v-9C37,38.4,36.6,38,36,38z"/>
	<path class="st0" d="M31,25c-0.6,0-1,0.4-1,1v1c0,0.6,0.4,1,1,1s1-0.4,1-1v-1C32,25.4,31.6,25,31,25z"/>
	<path class="st0" d="M31,30c-0.6,0-1,0.4-1,1v2c0,0.6,0.4,1,1,1s1-0.4,1-1v-2C32,30.4,31.6,30,31,30z"/>
	<path class="st0" d="M31,36c-0.6,0-1,0.4-1,1v1c0,0.6,0.4,1,1,1s1-0.4,1-1v-1C32,36.4,31.6,36,31,36z"/>
	<path class="st0" d="M31,41c-0.6,0-1,0.4-1,1v2c0,0.6,0.4,1,1,1s1-0.4,1-1v-2C32,41.4,31.6,41,31,41z"/>
	<path class="st0" d="M30.3,47.3C30.1,47.5,30,47.7,30,48s0.1,0.5,0.3,0.7c0.2,0.2,0.4,0.3,0.7,0.3c0.3,0,0.5-0.1,0.7-0.3
		c0.2-0.2,0.3-0.4,0.3-0.7c0-0.3-0.1-0.5-0.3-0.7C31.3,46.9,30.7,46.9,30.3,47.3z"/>
	<path class="st0" d="M48,2H0v7h3v44.8C3,56.1,4.9,58,7.2,58h33.6c2.3,0,4.2-1.9,4.2-4.2V9h3V2z M43,53.8c0,1.2-1,2.2-2.2,2.2H7.2
		C6,56,5,55,5,53.8V7h4v7h8V7h9v4.3v1.5v6c0,1.2,1,2.3,2.3,2.3h8h1.5c1.2,0,2.3-1,2.3-2.3v-7.5V7h3V53.8z M11,7h4v5h-4V7z M34,7v2
		h-2V7H34z M38,7v2c-0.1,0-0.2,0-0.3,0H36V7H38z M28.3,19c-0.1,0-0.3-0.1-0.3-0.3V15c0.1,0,0.2,0,0.3,0H30v4H28.3z M32,15h1.7
		c0.1,0,0.3,0.1,0.3,0.3v3.5c0,0.1,0,0.2,0,0.3h-2V15z M36,18.7v-3.5c0-1.2-1-2.3-2.3-2.3h-5.5c-0.1,0-0.3-0.1-0.3-0.3v-1.5
		c0-0.1,0.1-0.3,0.3-0.3h9.5c0.1,0,0.3,0.1,0.3,0.3v7.5c0,0.1-0.1,0.3-0.3,0.3h-1.5C36.1,19,36,18.9,36,18.7z M30,9h-1.7
		c-0.1,0-0.2,0-0.3,0V7h2V9z M46,7h-1V5h-5H26h-9H9H3v2H2V4h44V7z"/>
	<path class="st0" d="M59.7,50.3c-0.4-0.4-1-0.4-1.4,0L54,54.6V29c0-0.6-0.4-1-1-1s-1,0.4-1,1v25.6l-4.3-4.3c-0.4-0.4-1-0.4-1.4,0
		s-0.4,1,0,1.4l6,6c0.1,0.1,0.2,0.2,0.3,0.2C52.7,58,52.9,58,53,58s0.3,0,0.4-0.1c0.1-0.1,0.2-0.1,0.3-0.2l6-6
		C60.1,51.3,60.1,50.7,59.7,50.3z"/>
</g>
</svg>
