<?xml version="1.0" encoding="utf-8"?>
<!-- Generator: Adobe Illustrator 23.0.3, SVG Export Plug-In . SVG Version: 6.00 Build 0)  -->
<svg version="1.1" id="Layer_1" xmlns="http://www.w3.org/2000/svg" xmlns:xlink="http://www.w3.org/1999/xlink" x="0px" y="0px"
	 viewBox="0 0 512 512" style="enable-background:new 0 0 512 512;" xml:space="preserve">
<style type="text/css">
	.st0{fill:#FCFCFC;}
	.st1{fill:#FFFFFF;}
</style>
<g>
	<g>
		<path class="st0" d="M107.6,190c-6,0-10.9,4.9-10.9,10.9v208.3H53.1V200.9c0-6-4.9-10.9-10.9-10.9s-10.9,4.9-10.9,10.9v217.9
			c0,6,6.2,12.3,12.3,12.3h65.4c6,0,9.5-6.2,9.5-12.3V200.9C118.5,194.8,113.6,190,107.6,190z"/>
	</g>
</g>
<g>
	<g>
		<path class="st0" d="M227.4,190c-6,0-10.9,4.9-10.9,10.9v208.3h-43.6V200.9c0-6-4.9-10.9-10.9-10.9s-10.9,4.9-10.9,10.9v217.9
			c0,6,6.2,12.3,12.3,12.3h65.4c6,0,9.5-6.2,9.5-12.3V200.9C238.3,194.8,233.4,190,227.4,190z"/>
	</g>
</g>
<g>
	<g>
		<path class="st0" d="M347.2,190c-6,0-10.9,4.9-10.9,10.9v208.3h-43.6V200.9c0-6-4.9-10.9-10.9-10.9s-10.9,4.9-10.9,10.9v217.9
			c0,6,6.2,12.3,12.3,12.3h65.4c6,0,9.5-6.2,9.5-12.3V200.9C358.1,194.8,353.3,190,347.2,190z"/>
	</g>
</g>
<g>
	<g>
		<path class="st0" d="M467.1,190c-6,0-10.9,4.9-10.9,10.9v208.3h-43.6V200.9c0-6-4.9-10.9-10.9-10.9s-10.9,4.9-10.9,10.9v217.9
			c0,6,6.2,12.3,12.3,12.3h65.4c6,0,9.5-6.2,9.5-12.3V200.9C478,194.8,473.1,190,467.1,190z"/>
	</g>
</g>
<g>
	<g>
		<path class="st1" d="M505.5,147.3L260.4,38.4c-2.8-1.3-6-1.3-8.9,0L6.5,147.3c-4.7,2.1-7.3,7.9-6.2,12.9c1.1,5,5.5,9.3,10.7,9.3
			h490.2c5.1,0,9.6-4.3,10.7-9.3C512.8,155.2,510.2,149.4,505.5,147.3z M62.2,147.7L256,61.6l193.8,86.1H62.2z"/>
	</g>
</g>
<g>
	<g>
		<rect x="20.4" y="452.8" class="st0" width="468.4" height="21.8"/>
	</g>
</g>
</svg>
