<?xml version="1.0" encoding="utf-8"?>
<!-- Generator: Adobe Illustrator 23.0.3, SVG Export Plug-In . SVG Version: 6.00 Build 0)  -->
<svg version="1.1" id="Capa_1" xmlns="http://www.w3.org/2000/svg" xmlns:xlink="http://www.w3.org/1999/xlink" x="0px" y="0px"
	 viewBox="0 0 345 345" style="enable-background:new 0 0 345 345;" xml:space="preserve">
<style type="text/css">
	.st0{fill:#FFFFFF;}
</style>
<g>
	<path class="st0" d="M327.5,309.6H35V17.9c0-9.7-7.8-17.5-17.5-17.5C7.8,0.4,0,8.2,0,17.9v309.2c0,9.7,7.8,17.5,17.5,17.5h310
		c9.7,0,17.5-7.8,17.5-17.5C345,317.4,337.2,309.6,327.5,309.6z"/>
	<path class="st0" d="M75.6,235c4.7,0,9.5-1.9,12.9-5.7l48.7-53.2l87.2,38.3c7.5,3.3,16.3,0.9,21.1-5.7l53.5-72.8l4.5,31.3
		c1.3,8.7,8.7,15,17.3,15c0.8,0,1.7-0.1,2.5-0.2c9.6-1.4,16.2-10.2,14.8-19.8l-10.6-74.1c-1.4-9.6-10.2-16.2-19.8-14.8L233.6,84
		c-9.6,1.4-16.2,10.2-14.8,19.8c1.4,9.6,10.2,16.2,19.8,14.8l33.2-4.8l-46.2,62.8L139.8,139c-6.9-3-14.9-1.3-19.9,4.2l-57.2,62.5
		c-6.5,7.1-6,18.2,1.1,24.7C67.1,233.4,71.3,235,75.6,235z"/>
</g>
</svg>
